<?xml version="1.0" standalone="no"?>
<!DOCTYPE svg PUBLIC "-//W3C//DTD SVG 20010904//EN"
 "http://www.w3.org/TR/2001/REC-SVG-20010904/DTD/svg10.dtd">
<svg version="1.0" xmlns="http://www.w3.org/2000/svg"
 width="200.000000pt" height="144.000000pt" viewBox="0 0 200.000000 144.000000"
 preserveAspectRatio="xMidYMid meet">

<g transform="translate(0.000000,144.000000) scale(0.100000,-0.100000)"
fill="#000000" stroke="none">
<path d="M125 1400 c-32 -13 -63 -52 -80 -99 -13 -37 -15 -125 -15 -600 0
-537 1 -557 20 -589 11 -18 34 -41 52 -52 31 -19 51 -20 414 -20 l381 0 74 48
c135 89 289 224 289 254 0 17 -26 18 -447 20 l-448 3 -3 358 -2 357 545 0
c300 0 546 -1 546 -2 1 -2 5 -59 8 -128 l6 -125 155 0 155 0 3 247 2 247 -27
31 c-54 59 -60 60 -873 59 -404 0 -744 -4 -755 -9z m70 -590 c120 0 124 1 128
23 2 12 5 -4 6 -35 1 -55 0 -58 -26 -64 -69 -15 -177 -46 -209 -59 l-34 -14 1
97 c1 53 4 87 6 75 4 -22 8 -23 128 -23z"/>
<path d="M480 728 c0 -13 -9 -57 -20 -98 -26 -100 -26 -102 12 -98 28 2 34 8
38 32 7 42 23 42 58 1 23 -25 40 -35 61 -35 20 0 29 4 26 13 -2 6 -13 56 -25
110 l-22 97 -64 0 c-60 0 -64 -2 -64 -22z m85 -55 c7 -53 7 -53 -20 -53 -19 0
-26 4 -22 14 3 7 9 35 12 60 9 58 21 49 30 -21z"/>
<path d="M680 640 l0 -110 35 0 35 0 0 110 0 110 -35 0 -35 0 0 -110z"/>
<path d="M780 640 l0 -110 35 0 c35 0 35 0 35 45 0 43 1 45 30 45 20 0 30 5
30 15 0 10 -10 15 -30 15 -19 0 -30 5 -30 14 0 8 -12 24 -27 35 l-28 20 63 1
c48 0 62 3 62 15 0 12 -14 15 -70 15 l-70 0 0 -110z"/>
<path d="M961 713 c-5 -21 -14 -63 -21 -93 -6 -30 -14 -63 -17 -72 -3 -15 2
-18 30 -18 32 0 35 3 41 35 4 19 11 35 15 35 5 0 23 -16 40 -35 22 -26 39 -35
61 -35 16 0 30 2 30 4 0 7 -29 134 -41 179 l-10 37 -59 0 -59 0 -10 -37z m94
-70 c5 -20 1 -23 -24 -23 l-29 0 10 48 c15 74 20 81 29 37 5 -22 11 -50 14
-62z"/>
<path d="M1158 725 c-20 -44 0 -78 52 -90 62 -14 70 -21 70 -61 0 -42 -8 -43
-45 -4 -34 36 -85 42 -85 11 0 -32 38 -51 100 -51 75 0 92 14 88 70 -3 47 2
43 -90 64 -25 6 -28 11 -28 46 0 36 -2 40 -25 40 -18 0 -29 -8 -37 -25z"/>
<path d="M1255 720 c28 -30 85 -43 85 -19 0 33 -22 49 -67 49 l-47 0 29 -30z"/>
<path d="M1382 738 c-14 -14 -16 -166 -2 -188 12 -19 139 -27 169 -11 19 11
21 20 21 99 0 55 -4 92 -12 100 -7 7 -34 12 -61 12 l-50 0 27 -21 c24 -19 26
-26 26 -95 0 -57 -3 -76 -15 -80 -33 -13 -45 15 -45 107 0 86 -1 89 -23 89
-13 0 -28 -5 -35 -12z"/>
<path d="M1600 640 l0 -110 35 0 c35 0 35 0 35 45 0 43 1 45 30 45 20 0 30 5
30 15 0 10 -10 15 -30 15 -19 0 -30 5 -30 14 0 8 -12 24 -27 35 l-28 20 63 1
c48 0 62 3 62 15 0 12 -14 15 -70 15 l-70 0 0 -110z"/>
<path d="M1760 735 c0 -9 9 -15 25 -15 25 0 25 0 25 -95 l0 -95 35 0 35 0 0
72 c0 60 -4 76 -22 95 l-21 23 46 0 c35 0 47 4 47 15 0 12 -16 15 -85 15 -69
0 -85 -3 -85 -15z"/>
</g>
</svg>
