<?xml version="1.0" encoding="utf-8"?>
<!-- Generator: Adobe Illustrator 25.3.1, SVG Export Plug-In . SVG Version: 6.00 Build 0)  -->
<svg version="1.1" id="Layer_1" xmlns="http://www.w3.org/2000/svg" xmlns:xlink="http://www.w3.org/1999/xlink" x="0px" y="0px"
	 viewBox="0 0 315 90" style="enable-background:new 0 0 315 90;" xml:space="preserve">
<style type="text/css">
	.st0{fill:#010101;}
</style>
<g transform="translate(0.000000,512.000000) scale(0.100000,-0.100000)">
	<path class="st0" d="M402,5030.2c-1.2-0.5-242.4-52.7-243.7-52.7c-0.3,0-0.5-121-0.5-268.7v-268.7l35.2-11.9
		c19.4-6.6,75.3-25.3,124-41.6l88.7-29.7l123.4,41.3l123.4,41.2l0.4,269.1c0.1,147.9,0,269-0.3,269c-0.3,0-54.9,11.8-121.4,26.1
		C399.5,5032,403.9,5031,402,5030.2z M519.8,4990.5c61.6-13.1,113.4-24.2,115.2-24.6l3-0.7v-257.8v-257.8l-116.3-38.9l-116.3-38.7
		l-116.3,38.7l-116.3,38.9v257.6v257.8l7.1,1.5c50.2,11.2,221.5,47.6,224.3,47.8C406.1,5014.5,458.1,5003.6,519.8,4990.5z"/>
	<path class="st0" d="M269.7,4936.1l-35.3-29v-19.4v-19.6l129.6-0.3l129.6-0.4l-32.4-28.5c-17.8-15.7-32.4-28.9-32.4-29.1
		c0-0.3,11.5-0.5,25.7-0.5H480l35.8,29.1l35.8,29v20.1l0.1,20.2l-128.9,0.3l-128.9,0.4l31.7,27.9c17.5,15.3,31.7,28,31.7,28.3
		c0,0.3-11.9,0.5-26.3,0.4h-26.4L269.7,4936.1z"/>
	<path class="st0" d="M353.4,4779.7c-38-44.2-69-80.6-69-80.9c0.1-0.4,31.2-36.7,69.1-80.7l69-80l0.4,81c0.1,44.5,0.1,117,0,160.9
		l-0.4,80L353.4,4779.7z M396.9,4654.6l-0.4-45.4l-38,43.9c-20.8,24.2-38,44.5-38.3,45.2c-0.1,0.7,17,21.3,38,46l38.3,44.6l0.4-44.5
		C397,4720,397,4679.5,396.9,4654.6z"/>
	<path class="st0" d="M537.8,4801l-0.4-45l-34.9,23.8l-34.9,23.8l-0.4-20.8c-0.1-11.4-0.1-21.3,0.3-22.2c0.3-1,16.3-12.9,35.6-26.7
		l35-25.2v-90v-90h20.5h20.5v158.7v158.7h-20.5h-20.5L537.8,4801z"/>
	<path class="st0" d="M241.2,4642.6v-140.7l58-17.4c31.7-9.6,58.6-17.4,59.5-17.4c1.1,0,1.5,5.2,1.5,17.1c0,17,0,17.2-3.3,18.5
		c-1.9,0.7-19.6,6-39.4,11.8c-19.8,5.7-37.1,11.1-38.3,11.8c-2.2,1.1-2.5,3.8-2.5,26.4c0,14,0.3,25.3,0.5,25.3
		c0.3,0,18.7-5.5,41.2-12.3c22.4-6.8,40.9-12.3,41.2-12.3s0.5,7.9,0.5,17.7v17.5l-37.9,11.2c-20.9,6.2-39.5,11.8-41.5,12.3l-3.4,1.1
		l-0.4,85l-0.3,85.1H259h-17.8V4642.6z"/>
	<path class="st0" d="M435.2,4618.8l-0.4-129l-28.7,32.6l-28.7,32.7l-0.4-26.1c-0.3-23.5-0.1-26.4,2.1-28.9
		c1.4-1.4,14.5-17.4,29.1-35.4l26.7-32.8h20.1l20.2-0.1l0.3,128.8l0.4,128.6l28-32.2c15.5-17.6,28.5-32.2,29.1-32.2
		c0.5-0.1,1,11.4,1,25.6l-0.1,25.6l-29.6,36l-29.7,35.8h-19.6h-19.6L435.2,4618.8z"/>
</g>
<g>
	<polygon points="82.9,35.5 93,35.5 93,43.3 96.3,43.3 96.3,25.2 93,25.2 93,32.2 82.9,32.2 82.9,25.2 79.6,25.2 79.6,43.3 
		82.9,43.3 	"/>
	<path d="M108.9,25.2l-7.9,18h3.2l1.6-4h8.8l1.7,4h3.7l-8-18H108.9z M107.2,36.1l3.1-7.3l3,7.3H107.2z"/>
	<polygon points="140.5,25.2 135.8,25.2 128,32.7 128,25.2 124.8,25.2 124.8,43.3 128,43.3 128,35.3 136.4,43.3 141.6,43.3 
		131.2,33.7 	"/>
	<path d="M153.8,25.2h-3.1l-7.9,18h3.2l1.6-4h8.8l1.7,4h3.7L153.8,25.2z M149,36.1l3.1-7.3l3,7.3H149z"/>
	<path d="M183,25.2H180v9.5c0,0.4,0,1.4,0.1,3.1c-0.4-0.5-0.9-1.2-1.6-2l-9.8-10.6h-2.2v18h2.9v-9.9c0-0.7,0-1.6-0.1-2.8
		c0.3,0.5,0.7,1,1.2,1.5l10.3,11.2h2.2V25.2z"/>
	<path d="M214.9,41.9c2.1-1.7,3.1-4.2,3.1-7.7c0-3-0.8-5.3-2.3-6.8c-1.4-1.4-3.3-2.1-5.7-2.1h-9v18h8.1
		C211.8,43.3,213.7,42.8,214.9,41.9z M204.3,39.9V28.4h5.8c3.1,0,4.6,1.9,4.6,5.6c0,2.3-0.6,3.9-1.8,4.8c-0.9,0.7-2.3,1-4.3,1H204.3
		z"/>
	<rect x="228.9" y="18.6" width="2.7" height="3.9"/>
	<rect x="233.4" y="18.6" width="2.7" height="3.9"/>
	<path d="M237.6,25.2h-10.3c-1.3,0-2.2,0.3-2.7,0.9c-0.5,0.6-0.7,1.7-0.7,3.4V39c0,1.7,0.2,2.8,0.7,3.4c0.5,0.6,1.4,0.9,2.7,0.9
		h10.3c1.3,0,2.2-0.3,2.7-0.9c0.5-0.6,0.7-1.7,0.7-3.4v-9.5c0-1.7-0.2-2.8-0.7-3.4C239.9,25.5,239,25.2,237.6,25.2z M237.9,39.9
		h-10.7V28.4h10.7V39.9z"/>
	<polygon points="254.2,38.3 248.5,25.2 244.8,25.2 252.9,43.3 255.1,43.3 262.8,25.2 259.6,25.2 	"/>
	<rect x="266.8" y="25.2" width="3.2" height="18"/>
	<polygon points="290.5,25.2 276.5,25.2 276.5,28.4 285.3,28.4 275.6,41.3 275.6,43.3 290.5,43.3 290.5,39.9 280.6,39.9 290.5,27 	
		"/>
	<polygon points="84.8,57.8 84.1,59.1 83.3,57.7 81.3,54.4 79.6,54.4 83.3,60.2 83.3,63.5 84.7,63.5 84.7,60.3 88.4,54.4 86.8,54.4 
			"/>
	<polygon points="91.4,63.5 97.2,63.5 97.2,62.5 92.7,62.5 92.7,59.3 97,59.3 97,58.3 92.7,58.3 92.7,55.4 97.2,55.4 97.2,54.4 
		91.4,54.4 	"/>
	<polygon points="100.6,55.4 103.7,55.4 103.7,63.5 105.1,63.5 105.1,55.4 108.1,55.4 108.1,54.4 100.6,54.4 	"/>
	<polygon points="118.1,54.4 116.5,54.4 112.7,58.6 112.7,54.4 111.3,54.4 111.3,63.5 112.7,63.5 112.7,59 116.6,63.5 118.3,63.5 
		114.1,58.7 	"/>
	<path d="M124,53.3c0.1,0.1,0.2,0.1,0.3,0.2c0.1,0,0.3,0.1,0.4,0.1c0.1,0,0.3,0,0.4-0.1c0.1,0,0.2-0.1,0.3-0.2
		c0.1-0.1,0.2-0.2,0.2-0.3c0-0.1,0.1-0.2,0.1-0.3c0-0.1,0-0.2-0.1-0.3c0-0.1-0.1-0.2-0.2-0.3c-0.1-0.1-0.2-0.1-0.3-0.2
		c-0.1,0-0.3-0.1-0.4-0.1c-0.1,0-0.3,0-0.4,0.1c-0.1,0-0.2,0.1-0.3,0.2c-0.1,0.1-0.2,0.2-0.2,0.3c-0.1,0.1-0.1,0.2-0.1,0.3
		c0,0.1,0,0.2,0.1,0.3C123.8,53.1,123.9,53.2,124,53.3z"/>
	<polygon points="121.6,55.4 124,55.4 124,62.5 121.6,62.5 121.6,63.5 127.8,63.5 127.8,62.5 125.4,62.5 125.4,55.4 127.8,55.4 
		127.8,54.4 121.6,54.4 	"/>
	<polygon points="133.7,54.4 132.3,54.4 132.3,63.5 138.2,63.5 138.2,62.5 133.7,62.5 	"/>
	<path d="M144.7,53.5c0.1,0,0.3,0.1,0.4,0.1s0.3,0,0.4-0.1c0.1,0,0.2-0.1,0.3-0.2c0.1-0.1,0.2-0.2,0.2-0.3s0.1-0.2,0.1-0.3
		c0-0.1,0-0.2-0.1-0.3c0-0.1-0.1-0.2-0.2-0.3c-0.1-0.1-0.2-0.1-0.3-0.2c-0.1,0-0.3-0.1-0.4-0.1s-0.3,0-0.4,0.1
		c-0.1,0-0.2,0.1-0.3,0.2c-0.1,0.1-0.2,0.2-0.2,0.3c-0.1,0.1-0.1,0.2-0.1,0.3c0,0.1,0,0.2,0.1,0.3c0.1,0.1,0.1,0.2,0.2,0.3
		C144.4,53.3,144.5,53.4,144.7,53.5z"/>
	<polygon points="142,55.4 144.3,55.4 144.3,62.5 142,62.5 142,63.5 148.1,63.5 148.1,62.5 145.8,62.5 145.8,55.4 148.1,55.4 
		148.1,54.4 142,54.4 	"/>
	<polygon points="167.2,54.4 165.8,57.8 165.3,59 164.9,57.8 163.5,54.4 161.9,54.4 161.4,63.5 162.7,63.5 162.9,57.9 162.9,55.6 
		163.4,57 164.8,60.5 165.8,60.5 167.3,56.9 167.8,55.6 167.8,57.8 168.1,63.5 169.4,63.5 168.9,54.4 	"/>
	<path d="M177.6,53.3c0.1,0,0.2-0.1,0.3-0.2c0.1-0.1,0.1-0.1,0.2-0.2c0-0.1,0.1-0.2,0.1-0.3c0-0.1,0-0.2-0.1-0.3
		c0-0.1-0.1-0.2-0.2-0.2s-0.2-0.1-0.3-0.2c-0.1,0-0.2-0.1-0.3-0.1c-0.1,0-0.2,0-0.3,0.1c-0.1,0-0.2,0.1-0.3,0.2
		c-0.1,0.1-0.1,0.1-0.2,0.2c0,0.1-0.1,0.2-0.1,0.3c0,0.2,0.1,0.4,0.2,0.5c0.2,0.1,0.4,0.2,0.6,0.2C177.4,53.4,177.5,53.4,177.6,53.3
		z"/>
	<path d="M174.2,53.3c0.1,0,0.2-0.1,0.3-0.2c0.1-0.1,0.1-0.1,0.2-0.2c0-0.1,0.1-0.2,0.1-0.3c0-0.1,0-0.2-0.1-0.3
		c0-0.1-0.1-0.2-0.2-0.2c-0.1-0.1-0.2-0.1-0.3-0.2c-0.1,0-0.2-0.1-0.3-0.1c-0.1,0-0.2,0-0.3,0.1c-0.1,0-0.2,0.1-0.3,0.2
		s-0.1,0.1-0.2,0.2s-0.1,0.2-0.1,0.3c0,0.2,0.1,0.4,0.2,0.5c0.2,0.1,0.4,0.2,0.6,0.2C174,53.4,174.1,53.4,174.2,53.3z"/>
	<path d="M177.7,60.4c0,0.7-0.2,1.2-0.5,1.6c-0.4,0.4-0.9,0.6-1.6,0.6c-0.4,0-0.7,0-1-0.1c-0.3-0.1-0.5-0.2-0.7-0.4
		c-0.2-0.2-0.3-0.4-0.4-0.7s-0.1-0.6-0.1-0.9v-6.1H172v6.2c0,0.5,0.1,0.9,0.2,1.3c0.1,0.4,0.3,0.7,0.6,1c0.3,0.3,0.6,0.5,1.1,0.6
		c0.4,0.1,1,0.2,1.6,0.2c0.6,0,1.1-0.1,1.5-0.2c0.4-0.2,0.8-0.4,1.1-0.7c0.3-0.3,0.5-0.6,0.7-1c0.2-0.4,0.2-0.9,0.2-1.4v-6h-1.4
		V60.4z"/>
	<polygon points="182.9,63.5 188.7,63.5 188.7,62.5 184.3,62.5 184.3,59.3 188.5,59.3 188.5,58.3 184.3,58.3 184.3,55.4 188.7,55.4 
		188.7,54.4 182.9,54.4 	"/>
	<path d="M198.5,59.4c-0.3-0.2-0.5-0.4-0.9-0.5c-0.3-0.1-0.6-0.3-1-0.4c-0.3-0.1-0.7-0.2-1-0.4c-0.3-0.1-0.6-0.2-0.9-0.4
		c-0.3-0.1-0.5-0.3-0.6-0.5c-0.2-0.2-0.2-0.4-0.2-0.6c0-0.4,0.2-0.7,0.6-1c0.4-0.2,1-0.4,1.8-0.4c0.4,0,0.8,0,1.2,0.1
		c0.4,0.1,0.8,0.1,1.2,0.2v-1.1c-0.2,0-0.4-0.1-0.6-0.1c-0.2,0-0.4-0.1-0.6-0.1c-0.2,0-0.4,0-0.6-0.1c-0.2,0-0.4,0-0.6,0
		c-0.7,0-1.2,0.1-1.7,0.2c-0.5,0.1-0.9,0.3-1.2,0.6c-0.3,0.2-0.5,0.5-0.7,0.8c-0.1,0.3-0.2,0.6-0.2,0.9c0,0.4,0.1,0.7,0.2,0.9
		c0.2,0.3,0.4,0.5,0.6,0.7c0.2,0.2,0.5,0.4,0.9,0.5c0.3,0.1,0.6,0.3,1,0.4c0.3,0.1,0.7,0.2,1,0.4c0.3,0.1,0.6,0.2,0.9,0.4
		c0.2,0.1,0.5,0.3,0.6,0.5c0.2,0.2,0.2,0.4,0.2,0.6c0,0.2,0,0.4-0.1,0.6c-0.1,0.2-0.2,0.3-0.4,0.5s-0.5,0.2-0.8,0.3
		c-0.3,0.1-0.7,0.1-1.1,0.1c-0.6,0-1.2,0-1.7-0.1s-0.9-0.2-1.3-0.3v1.2c0.2,0,0.4,0.1,0.6,0.1c0.2,0,0.5,0.1,0.7,0.1
		c0.2,0,0.5,0.1,0.8,0.1c0.3,0,0.5,0,0.8,0c0.6,0,1.1-0.1,1.6-0.2c0.5-0.1,0.9-0.3,1.3-0.5s0.6-0.5,0.8-0.8c0.2-0.3,0.3-0.7,0.3-1.1
		c0-0.4-0.1-0.7-0.2-0.9C198.9,59.8,198.7,59.6,198.5,59.4z"/>
	<path d="M208.6,59.4c-0.3-0.2-0.5-0.4-0.9-0.5c-0.3-0.1-0.6-0.3-1-0.4c-0.3-0.1-0.7-0.2-1-0.4c-0.3-0.1-0.6-0.2-0.9-0.4
		c-0.3-0.1-0.5-0.3-0.6-0.5c-0.2-0.2-0.2-0.4-0.2-0.6c0-0.4,0.2-0.7,0.6-1c0.4-0.2,1-0.4,1.8-0.4c0.4,0,0.8,0,1.2,0.1
		c0.4,0.1,0.8,0.1,1.2,0.2v-1.1c-0.2,0-0.4-0.1-0.6-0.1c-0.2,0-0.4-0.1-0.6-0.1c-0.2,0-0.4,0-0.6-0.1c-0.2,0-0.4,0-0.6,0
		c-0.7,0-1.2,0.1-1.7,0.2c-0.5,0.1-0.9,0.3-1.2,0.6c-0.3,0.2-0.5,0.5-0.7,0.8c-0.1,0.3-0.2,0.6-0.2,0.9c0,0.4,0.1,0.7,0.2,0.9
		c0.2,0.3,0.4,0.5,0.6,0.7c0.2,0.2,0.5,0.4,0.9,0.5c0.3,0.1,0.6,0.3,1,0.4c0.3,0.1,0.7,0.2,1,0.4c0.3,0.1,0.6,0.2,0.9,0.4
		c0.2,0.1,0.5,0.3,0.6,0.5c0.2,0.2,0.2,0.4,0.2,0.6c0,0.2,0,0.4-0.1,0.6c-0.1,0.2-0.2,0.3-0.4,0.5c-0.2,0.1-0.5,0.2-0.8,0.3
		c-0.3,0.1-0.7,0.1-1.1,0.1c-0.6,0-1.2,0-1.7-0.1s-0.9-0.2-1.3-0.3v1.2c0.2,0,0.4,0.1,0.6,0.1c0.2,0,0.5,0.1,0.7,0.1
		c0.2,0,0.5,0.1,0.8,0.1c0.3,0,0.5,0,0.8,0c0.6,0,1.1-0.1,1.6-0.2c0.5-0.1,0.9-0.3,1.3-0.5s0.6-0.5,0.8-0.8c0.2-0.3,0.3-0.7,0.3-1.1
		c0-0.4-0.1-0.7-0.2-0.9C209.1,59.8,208.9,59.6,208.6,59.4z"/>
	<polygon points="213.4,63.5 219.2,63.5 219.2,62.5 214.8,62.5 214.8,59.3 219.1,59.3 219.1,58.3 214.8,58.3 214.8,55.4 219.2,55.4 
		219.2,54.4 213.4,54.4 	"/>
	<path d="M229,59.4c-0.3-0.2-0.5-0.4-0.9-0.5c-0.3-0.1-0.6-0.3-1-0.4c-0.3-0.1-0.7-0.2-1-0.4c-0.3-0.1-0.6-0.2-0.9-0.4
		c-0.3-0.1-0.5-0.3-0.6-0.5c-0.2-0.2-0.2-0.4-0.2-0.6c0-0.4,0.2-0.7,0.6-1c0.4-0.2,1-0.4,1.8-0.4c0.4,0,0.8,0,1.2,0.1
		c0.4,0.1,0.8,0.1,1.2,0.2v-1.1c-0.2,0-0.4-0.1-0.6-0.1c-0.2,0-0.4-0.1-0.6-0.1c-0.2,0-0.4,0-0.6-0.1c-0.2,0-0.4,0-0.6,0
		c-0.7,0-1.2,0.1-1.7,0.2c-0.5,0.1-0.9,0.3-1.2,0.6c-0.3,0.2-0.5,0.5-0.7,0.8c-0.1,0.3-0.2,0.6-0.2,0.9c0,0.4,0.1,0.7,0.2,0.9
		c0.2,0.3,0.4,0.5,0.6,0.7c0.2,0.2,0.5,0.4,0.9,0.5c0.3,0.1,0.6,0.3,1,0.4c0.3,0.1,0.7,0.2,1,0.4c0.3,0.1,0.6,0.2,0.9,0.4
		c0.2,0.1,0.5,0.3,0.6,0.5c0.2,0.2,0.2,0.4,0.2,0.6c0,0.2,0,0.4-0.1,0.6c-0.1,0.2-0.2,0.3-0.4,0.5s-0.5,0.2-0.8,0.3
		c-0.3,0.1-0.7,0.1-1.1,0.1c-0.6,0-1.2,0-1.7-0.1s-0.9-0.2-1.3-0.3v1.2c0.2,0,0.4,0.1,0.6,0.1c0.2,0,0.5,0.1,0.7,0.1
		c0.2,0,0.5,0.1,0.8,0.1c0.3,0,0.5,0,0.8,0c0.6,0,1.1-0.1,1.6-0.2c0.5-0.1,0.9-0.3,1.3-0.5c0.4-0.2,0.6-0.5,0.8-0.8
		c0.2-0.3,0.3-0.7,0.3-1.1c0-0.4-0.1-0.7-0.2-0.9C229.4,59.8,229.2,59.6,229,59.4z"/>
	<polygon points="233.8,63.5 239.6,63.5 239.6,62.5 235.2,62.5 235.2,59.3 239.4,59.3 239.4,58.3 235.2,58.3 235.2,55.4 239.6,55.4 
		239.6,54.4 233.8,54.4 	"/>
	<path d="M256,54.4l-3.4,9.2h1.4l0.7-2h4.3l0.7,2h1.5l-3.3-9.2H256z M255.2,60.4l1.7-4.9l1.7,4.9H255.2z"/>
	<path d="M268,61.7c-0.1-0.1-0.3-0.2-0.4-0.3c-0.2-0.1-0.3-0.1-0.5-0.1c-0.2,0-0.4,0-0.5,0.1c-0.2,0.1-0.3,0.1-0.4,0.3
		c-0.1,0.1-0.2,0.2-0.3,0.4c-0.1,0.1-0.1,0.3-0.1,0.5c0,0.2,0,0.3,0.1,0.4c0.1,0.1,0.2,0.3,0.3,0.4c0.1,0.1,0.3,0.2,0.4,0.2
		c0.2,0.1,0.3,0.1,0.5,0.1c0.2,0,0.3,0,0.5-0.1c0.2-0.1,0.3-0.1,0.4-0.2c0.1-0.1,0.2-0.2,0.3-0.4s0.1-0.3,0.1-0.4
		c0-0.2,0-0.3-0.1-0.5C268.2,61.9,268.1,61.8,268,61.7z"/>
	<path d="M279.8,59.4c-0.3-0.2-0.5-0.4-0.9-0.5c-0.3-0.1-0.6-0.3-1-0.4c-0.3-0.1-0.7-0.2-1-0.4c-0.3-0.1-0.6-0.2-0.9-0.4
		c-0.3-0.1-0.5-0.3-0.6-0.5c-0.2-0.2-0.2-0.4-0.2-0.6c0-0.4,0.2-0.7,0.6-1c0.4-0.2,1-0.4,1.8-0.4c0.4,0,0.8,0,1.2,0.1
		c0.4,0.1,0.8,0.1,1.2,0.2v-1.1c-0.2,0-0.4-0.1-0.6-0.1c-0.2,0-0.4-0.1-0.6-0.1c-0.2,0-0.4,0-0.6-0.1c-0.2,0-0.4,0-0.6,0
		c-0.7,0-1.2,0.1-1.7,0.2c-0.5,0.1-0.9,0.3-1.2,0.6c-0.3,0.2-0.5,0.5-0.7,0.8c-0.1,0.3-0.2,0.6-0.2,0.9c0,0.4,0.1,0.7,0.2,0.9
		c0.2,0.3,0.4,0.5,0.6,0.7c0.2,0.2,0.5,0.4,0.9,0.5c0.3,0.1,0.6,0.3,1,0.4c0.3,0.1,0.7,0.2,1,0.4c0.3,0.1,0.6,0.2,0.9,0.4
		c0.2,0.1,0.5,0.3,0.6,0.5c0.2,0.2,0.2,0.4,0.2,0.6c0,0.2,0,0.4-0.1,0.6c-0.1,0.2-0.2,0.3-0.4,0.5c-0.2,0.1-0.5,0.2-0.8,0.3
		c-0.3,0.1-0.7,0.1-1.1,0.1c-0.6,0-1.2,0-1.7-0.1c-0.5-0.1-0.9-0.2-1.3-0.3v1.2c0.2,0,0.4,0.1,0.6,0.1c0.2,0,0.5,0.1,0.7,0.1
		c0.2,0,0.5,0.1,0.7,0.1c0.2,0,0.5,0,0.7,0l-0.5,1.9h1.2l0.7-2c0.7-0.1,1.3-0.3,1.7-0.5c0.4-0.2,0.7-0.5,0.9-0.9
		c0.2-0.3,0.3-0.7,0.3-1.1c0-0.4-0.1-0.7-0.2-0.9C280.3,59.8,280.1,59.6,279.8,59.4z"/>
	<path d="M288.3,61.7c-0.1-0.1-0.3-0.2-0.4-0.3c-0.2-0.1-0.3-0.1-0.5-0.1c-0.2,0-0.4,0-0.5,0.1c-0.2,0.1-0.3,0.1-0.4,0.3
		c-0.1,0.1-0.2,0.2-0.3,0.4c-0.1,0.1-0.1,0.3-0.1,0.5c0,0.2,0,0.3,0.1,0.4c0.1,0.1,0.2,0.3,0.3,0.4c0.1,0.1,0.3,0.2,0.4,0.2
		c0.2,0.1,0.3,0.1,0.5,0.1c0.2,0,0.3,0,0.5-0.1c0.2-0.1,0.3-0.1,0.4-0.2c0.1-0.1,0.2-0.2,0.3-0.4s0.1-0.3,0.1-0.4
		c0-0.2,0-0.3-0.1-0.5C288.5,61.9,288.4,61.8,288.3,61.7z"/>
</g>
<rect x="267" y="18.4" width="2.9" height="4.2"/>
</svg>
